# xmcd CD database file
#
# Track frame offsets:
#	150
#	20135
#	31985
#	45485
#	63335
#	76084
#	88084
#	105034
#	119284
#	129184
#	141935
#	157610
#
# Disc length: 2263 seconds
#
# Revision: 0
# Processed by: cddbd v1.5.2PL0 Copyright (c) Steve Scherf et al.
# Submitted via: CDex 1.51
#
DISCID=8508d50c
DTITLE=Rex Dallas - Songs Of My Country
DYEAR=1900
DGENRE=Country
TTITLE0=King Of them All
TTITLE1=The Ringers Room
TTITLE2=The All Star Western Show
TTITLE3=The Letter
TTITLE4=Summertime Yodel
TTITLE5=Song Of The Country
TTITLE6=Good Old Days
TTITLE7=Our Buddy
TTITLE8=Moonbi Ranges
TTITLE9=Crosses By The Road
TTITLE10=Rain
TTITLE11=Highway Of Song
EXTD=
EXTT0=
EXTT1=
EXTT2=
EXTT3=
EXTT4=
EXTT5=
EXTT6=
EXTT7=
EXTT8=
EXTT9=
EXTT10=
EXTT11=
PLAYORDER=
